<?xml version="1.0" encoding="UTF-8" standalone="no"?>
<!-- Created with Inkscape (http://www.inkscape.org/) -->

<svg
   width="820"
   height="462"
   viewBox="0 0 820 462"
   version="1.1"
   id="svg1"
   sodipodi:docname="mobility.svg"
   inkscape:version="1.3.2 (091e20e, 2023-11-25, custom)"
   xmlns:inkscape="http://www.inkscape.org/namespaces/inkscape"
   xmlns:sodipodi="http://sodipodi.sourceforge.net/DTD/sodipodi-0.dtd"
   xmlns="http://www.w3.org/2000/svg"
   xmlns:svg="http://www.w3.org/2000/svg">
  <sodipodi:namedview
     id="namedview1"
     pagecolor="#505050"
     bordercolor="#ffffff"
     borderopacity="1"
     inkscape:showpageshadow="0"
     inkscape:pageopacity="0"
     inkscape:pagecheckerboard="1"
     inkscape:deskcolor="#505050"
     inkscape:document-units="px"
     inkscape:zoom="1.5487363"
     inkscape:cx="206.62007"
     inkscape:cy="239.87298"
     inkscape:window-width="1440"
     inkscape:window-height="837"
     inkscape:window-x="-8"
     inkscape:window-y="-8"
     inkscape:window-maximized="1"
     inkscape:current-layer="layer3" />
  <defs
     id="defs1">
    <inkscape:path-effect
       effect="powerstroke"
       id="path-effect31"
       is_visible="true"
       lpeversion="1.3"
       scale_width="1"
       interpolator_type="CentripetalCatmullRom"
       interpolator_beta="0.75"
       start_linecap_type="round"
       end_linecap_type="round"
       offset_points="123.74288,4.8426578"
       linejoin_type="spiro"
       miter_limit="4"
       not_jump="true"
       sort_points="true"
       message="&lt;b&gt;Ctrl + clique&lt;/b&gt; no nó existente e mova-o" />
    <inkscape:path-effect
       effect="simplify"
       id="path-effect30"
       is_visible="true"
       lpeversion="1.3"
       threshold="0.012"
       steps="1"
       smooth_angles="0"
       helper_size="0"
       simplify_individual_paths="false"
       simplify_just_coalesce="false"
       step="1" />
  </defs>
  <g
     inkscape:label="Camada 1"
     inkscape:groupmode="layer"
     id="layer1"
     transform="matrix(0.80304015,0,0,0.79738455,136.07166,-32.149423)">
    <path
       style="font-size:192px;-inkscape-font-specification:sans-serif;fill:#000000;fill-opacity:0"
       d="m 176.06473,251.59467 h -18.5625 V 131.31342 l -38.8125,81.84375 h -11.0625 L 69.095979,131.31342 V 251.59467 H 51.752229 V 112.00092 h 25.3125 l 39.045031,72.23991 34.17372,-72.23991 h 25.78125 z m 125.34375,-52.3125 c 0,17.0625 -4.375,30.53125 -13.125,40.40625 -8.75,9.875 -20.46875,14.8125 -35.15625,14.8125 -14.8125,0 -26.59375,-4.9375 -35.34375,-14.8125 -8.6875,-9.875 -13.03125,-23.34375 -13.03125,-40.40625 0,-17.0625 4.34375,-30.53125 13.03125,-40.40625 8.75,-9.9375 20.53125,-14.90625 35.34375,-14.90625 14.6875,0 26.40625,4.96875 35.15625,14.90625 8.75,9.875 13.125,23.34375 13.125,40.40625 z m -18.1875,0 c 0,-13.5625 -2.65625,-23.625 -7.96875,-30.1875 -5.3125,-6.625 -12.6875,-9.9375 -22.125,-9.9375 -9.5625,0 -17,3.3125 -22.3125,9.9375 -5.25,6.5625 -7.875,16.625 -7.875,30.1875 0,13.125 2.65625,23.09375 7.96875,29.90625 5.3125,6.75 12.71875,10.125 22.21875,10.125 9.375,0 16.71875,-3.34375 22.03125,-10.03125 5.375,-6.75 8.0625,-16.75 8.0625,-30 z m 137.625,-0.84375 c 0,8.75 -1.25,16.625 -3.75,23.625 -2.4375,7 -5.75,12.875 -9.9375,17.625 -4.4375,4.9375 -9.3125,8.65625 -14.625,11.15625 -5.3125,2.4375 -11.15625,3.65625 -17.53125,3.65625 -5.9375,0 -11.125,-0.71875 -15.5625,-2.15625 -4.4375,-1.375 -8.8125,-3.25 -13.125,-5.625 l -1.125,4.875 h -16.5 v -145.875 h 17.625 v 52.125 c 4.9375,-4.0625 10.1875,-7.375 15.75,-9.9375 5.5625,-2.625 11.8125,-3.9375 18.75,-3.9375 12.375,0 22.125,4.75 29.25,14.25 7.1875,9.5 10.78125,22.90625 10.78125,40.21875 z m -18.1875,0.46875 c 0,-12.5 -2.0625,-21.96875 -6.1875,-28.40625 -4.125,-6.5 -10.78125,-9.75 -19.96875,-9.75 -5.125,0 -10.3125,1.125 -15.5625,3.375 -5.25,2.1875 -10.125,5.03125 -14.625,8.53125 v 60 c 5,2.25 9.28125,3.8125 12.84375,4.6875 3.625,0.875 7.71875,1.3125 12.28125,1.3125 9.75,0 17.375,-3.1875 22.875,-9.5625 5.5625,-6.4375 8.34375,-16.5 8.34375,-30.1875 z m 64.59375,-69.5625 h -19.875 v -18.28125 h 19.875 z m -1.125,122.25 h -17.625 V 146.87592 h 17.625 z m 52.6875,0 h -17.625 v -145.875 h 17.625 z m 53.8125,-122.25 h -19.875 v -18.28125 h 19.875 z m -1.125,122.25 h -17.625 V 146.87592 h 17.625 z m 89.25,-0.9375 c -3.3125,0.875 -6.9375,1.59375 -10.875,2.15625 -3.875,0.5625 -7.34375,0.84375 -10.40625,0.84375 -10.6875,0 -18.8125,-2.875 -24.375,-8.625 -5.5625,-5.75 -8.34375,-14.96875 -8.34375,-27.65625 v -55.6875 h -11.90625 v -14.8125 h 11.90625 v -30.09375 h 17.625 v 30.09375 h 36.375 v 14.8125 h -36.375 v 47.71875 c 0,5.5 0.125,9.8125 0.375,12.9375 0.25,3.0625 1.125,5.9375 2.625,8.625 1.375,2.5 3.25,4.34375 5.625,5.53125 2.4375,1.125 6.125,1.6875 11.0625,1.6875 2.875,0 5.875,-0.40625 9,-1.21875 3.125,-0.875 5.375,-1.59375 6.75,-2.15625 h 0.9375 z m 110.90625,-103.78125 -61.125,143.34375 h -18.84375 l 19.5,-43.6875 -41.71875,-99.65625 h 19.125 l 32.15625,77.625 32.4375,-77.625 z"
       id="text3"
       aria-label="Mobility"
       sodipodi:nodetypes="ccccccccccccccssscscscsscscscscsscccsccccccccscsscsccccscscccccccccccccccccccccccccccsssccccccccccscccsccccccccccccc" />
    <g
       id="g5"
       transform="matrix(1.0458782,0,0,0.99961863,-4.1594441,158.56926)"
       style="fill:#000000;fill-opacity:1;fill-rule:evenodd;stroke:#000000;stroke-opacity:1">
      <g
         id="g7"
         style="fill:#315e25;fill-opacity:0;fill-rule:evenodd;stroke:#000000;stroke-width:2.8;stroke-dasharray:none;stroke-opacity:1">
        <g
           id="g6"
           style="fill:#315e25;fill-opacity:0;fill-rule:evenodd;stroke:#01b603;stroke-width:2.8;stroke-dasharray:none;stroke-opacity:1">
          <g
             id="g9"
             style="fill:#315e25;fill-opacity:0;fill-rule:evenodd;stroke:#01b603;stroke-width:2.8;stroke-dasharray:none;stroke-opacity:1">
            <g
               id="g8"
               style="fill:#315e25;fill-opacity:0;fill-rule:evenodd;stroke:#01b603;stroke-width:2.8;stroke-dasharray:none;stroke-opacity:1">
              <path
                 style="font-size:192px;-inkscape-font-specification:sans-serif;fill:#315e25;fill-opacity:0;fill-rule:evenodd;stroke:#01b603;stroke-width:2.8;stroke-dasharray:none;stroke-opacity:1"
                 d="M 172.86566,251.61442 H 153.87935 V 131.33317 l -39.69864,81.84375 H 102.86563 L 63.454655,131.33317 V 251.61442 H 45.714921 V 112.02067 h 25.890422 l 39.936487,72.23991 34.95396,-72.23991 h 26.36987 z m 120.20554,-52.3125 c 0,17.0625 -4.47489,30.53125 -13.42467,40.40625 -8.94977,9.875 -20.93608,14.8125 -35.95892,14.8125 -15.15069,0 -27.20092,-4.9375 -36.1507,-14.8125 -8.88584,-9.875 -13.32877,-23.34375 -13.32877,-40.40625 0,-17.0625 4.44293,-30.53125 13.32877,-40.40625 8.94978,-9.9375 21.00001,-14.90625 36.1507,-14.90625 15.02284,0 27.00915,4.96875 35.95892,14.90625 8.94978,9.875 13.42467,23.34375 13.42467,40.40625 z m -18.60275,0 c 0,-13.5625 -2.7169,-23.625 -8.15069,-30.1875 -5.43379,-6.625 -12.97717,-9.9375 -22.63015,-9.9375 -9.78082,0 -17.38813,3.3125 -22.82192,9.9375 -5.36987,6.5625 -8.0548,16.625 -8.0548,30.1875 0,13.125 2.71689,23.09375 8.15069,29.90625 5.43379,6.75 13.00913,10.125 22.72603,10.125 9.58905,0 17.10047,-3.34375 22.53426,-10.03125 5.49772,-6.75 8.24658,-16.75 8.24658,-30 z m 140.76718,-0.84375 c 0,8.75 -1.27854,16.625 -3.83562,23.625 -2.49315,7 -5.88128,12.875 -10.16438,17.625 -4.53882,4.9375 -9.52512,8.65625 -14.95892,11.15625 -5.43379,2.4375 -11.41096,3.65625 -17.93151,3.65625 -6.07306,0 -11.379,-0.71875 -15.91781,-2.15625 -4.53882,-1.375 -9.01371,-3.25 -13.42467,-5.625 l -1.15068,4.875 h -16.87672 v -145.875 h 18.0274 v 52.125 c 5.05023,-4.0625 10.4201,-7.375 16.1096,-9.9375 5.6895,-2.625 12.0822,-3.9375 19.17809,-3.9375 12.65754,0 22.63015,4.75 29.91782,14.25 7.3516,9.5 11.0274,22.90625 11.0274,40.21875 z m -18.60275,0.46875 c 0,-12.5 -2.10959,-21.96875 -6.32877,-28.40625 -4.21918,-6.5 -11.0274,-9.75 -20.42466,-9.75 -5.24201,0 -10.54795,1.125 -15.91782,3.375 -5.36986,2.1875 -10.35617,5.03125 -14.95891,8.53125 v 60 c 5.11416,2.25 9.49316,3.8125 13.13699,4.6875 3.70777,0.875 7.89498,1.3125 12.56165,1.3125 9.97261,0 17.7717,-3.1875 23.39727,-9.5625 5.6895,-6.4375 8.53425,-16.5 8.53425,-30.1875 z m 66.06852,-69.5625 h -20.32877 v -18.28125 h 20.32877 z m -1.15068,122.25 H 443.52331 V 146.89567 h 18.02741 z m 53.89043,0 h -18.0274 v -145.875 h 18.0274 z m 55.04112,-122.25 H 550.1535 v -18.28125 h 20.32877 z m -1.15068,122.25 H 551.30418 V 146.89567 h 18.02741 z m 91.28771,-0.9375 c -3.38813,0.875 -7.0959,1.59375 -11.1233,2.15625 -3.96347,0.5625 -7.51141,0.84375 -10.64384,0.84375 -10.93151,0 -19.24201,-2.875 -24.93151,-8.625 -5.6895,-5.75 -8.53425,-14.96875 -8.53425,-27.65625 v -55.6875 h -12.17809 v -14.8125 h 12.17809 v -30.09375 h 18.0274 v 30.09375 h 37.2055 v 14.8125 h -37.2055 v 47.71875 c 0,5.5 0.12785,9.8125 0.38356,12.9375 0.25571,3.0625 1.15069,5.9375 2.68494,8.625 1.40639,2.5 3.3242,4.34375 5.75342,5.53125 2.49315,1.125 6.26485,1.6875 11.31508,1.6875 2.94064,0 6.00913,-0.40625 9.20548,-1.21875 3.19635,-0.875 5.49772,-1.59375 6.90411,-2.15625 h 0.95891 z M 774.0577,146.89567 711.53713,290.23942 h -19.27398 l 19.94521,-43.6875 -42.67125,-99.65625 h 19.56165 l 32.89042,77.625 33.1781,-77.625 z"
                 id="text3-0"
                 aria-label="Mobility"
                 sodipodi:nodetypes="ccccccccccccccssscscscsscscscscsscccsccccccccscsscsccccscscccccccccccccccccccccccccccsssccccccccccscccsccccccccccccc" />
              <path
                 style="font-size:192px;-inkscape-font-specification:sans-serif;fill:#315e25;fill-opacity:0;fill-rule:evenodd;stroke:#01b603;stroke-width:2.8;stroke-dasharray:none;stroke-opacity:1"
                 d="M 171.31243,253.05896 H 152.32612 V 132.77771 l -39.69864,81.84375 H 101.3124 L 61.901433,132.77771 V 253.05896 H 44.161693 V 113.46521 h 25.89042 l 39.936487,72.23991 34.95396,-72.23991 h 26.36987 z m 120.20554,-52.3125 c 0,17.0625 -4.47489,30.53125 -13.42467,40.40625 -8.94977,9.875 -20.93608,14.8125 -35.95892,14.8125 -15.15069,0 -27.20092,-4.9375 -36.1507,-14.8125 -8.88584,-9.875 -13.32877,-23.34375 -13.32877,-40.40625 0,-17.0625 4.44293,-30.53125 13.32877,-40.40625 8.94978,-9.9375 21.00001,-14.90625 36.1507,-14.90625 15.02284,0 27.00915,4.96875 35.95892,14.90625 8.94978,9.875 13.42467,23.34375 13.42467,40.40625 z m -18.60275,0 c 0,-13.5625 -2.7169,-23.625 -8.15069,-30.1875 -5.43379,-6.625 -12.97717,-9.9375 -22.63015,-9.9375 -9.78082,0 -17.38813,3.3125 -22.82192,9.9375 -5.36987,6.5625 -8.0548,16.625 -8.0548,30.1875 0,13.125 2.71689,23.09375 8.15069,29.90625 5.43379,6.75 13.00913,10.125 22.72603,10.125 9.58905,0 17.10047,-3.34375 22.53426,-10.03125 5.49772,-6.75 8.24658,-16.75 8.24658,-30 z m 140.76718,-0.84375 c 0,8.75 -1.27854,16.625 -3.83562,23.625 -2.49315,7 -5.88128,12.875 -10.16438,17.625 -4.53882,4.9375 -9.52512,8.65625 -14.95892,11.15625 -5.43379,2.4375 -11.41096,3.65625 -17.93151,3.65625 -6.07306,0 -11.379,-0.71875 -15.91781,-2.15625 -4.53882,-1.375 -9.01371,-3.25 -13.42467,-5.625 l -1.15068,4.875 h -16.87672 v -145.875 h 18.0274 v 52.125 c 5.05023,-4.0625 10.4201,-7.375 16.1096,-9.9375 5.6895,-2.625 12.0822,-3.9375 19.17809,-3.9375 12.65754,0 22.63015,4.75 29.91782,14.25 7.3516,9.5 11.0274,22.90625 11.0274,40.21875 z m -18.60275,0.46875 c 0,-12.5 -2.10959,-21.96875 -6.32877,-28.40625 -4.21918,-6.5 -11.0274,-9.75 -20.42466,-9.75 -5.24201,0 -10.54795,1.125 -15.91782,3.375 -5.36986,2.1875 -10.35617,5.03125 -14.95891,8.53125 v 60 c 5.11416,2.25 9.49316,3.8125 13.13699,4.6875 3.70777,0.875 7.89498,1.3125 12.56165,1.3125 9.97261,0 17.7717,-3.1875 23.39727,-9.5625 5.6895,-6.4375 8.53425,-16.5 8.53425,-30.1875 z m 66.06852,-69.5625 H 440.8194 v -18.28125 h 20.32877 z m -1.15068,122.25 H 441.97008 V 148.34021 h 18.02741 z m 53.89043,0 h -18.0274 v -145.875 h 18.0274 z m 55.04112,-122.25 h -20.32877 v -18.28125 h 20.32877 z m -1.15068,122.25 H 549.75095 V 148.34021 h 18.02741 z m 91.28771,-0.9375 c -3.38813,0.875 -7.0959,1.59375 -11.1233,2.15625 -3.96347,0.5625 -7.51141,0.84375 -10.64384,0.84375 -10.93151,0 -19.24201,-2.875 -24.93151,-8.625 -5.6895,-5.75 -8.53425,-14.96875 -8.53425,-27.65625 v -55.6875 h -12.17809 v -14.8125 h 12.17809 v -30.09375 h 18.0274 v 30.09375 h 37.2055 v 14.8125 h -37.2055 v 47.71875 c 0,5.5 0.12785,9.8125 0.38356,12.9375 0.25571,3.0625 1.15069,5.9375 2.68494,8.625 1.40639,2.5 3.3242,4.34375 5.75342,5.53125 2.49315,1.125 6.26485,1.6875 11.31508,1.6875 2.94064,0 6.00913,-0.40625 9.20548,-1.21875 3.19635,-0.875 5.49772,-1.59375 6.90411,-2.15625 h 0.95891 z M 772.50447,148.34021 709.9839,291.68396 h -19.27398 l 19.94521,-43.6875 -42.67125,-99.65625 h 19.56165 l 32.89042,77.625 33.1781,-77.625 z"
                 id="text3-0-4"
                 aria-label="Mobility"
                 sodipodi:nodetypes="ccccccccccccccssscscscsscscscscsscccsccccccccscsscsccccscscccccccccccccccccccccccccccsssccccccccccscccsccccccccccccc" />
            </g>
          </g>
        </g>
      </g>
    </g>
  </g>
  <g
     inkscape:groupmode="layer"
     id="layer3"
     inkscape:label="logo"
     transform="matrix(0.72893952,0,0,0.69134905,-264.75014,154.94674)">
    <path
       id="path1"
       style="stroke-width:7.73212377;fill:#01b603;fill-opacity:1;stroke:#3b3b3b;stroke-opacity:0.59032255;stroke-dasharray:none;stroke-dashoffset:96.36798476;stroke-linecap:round;paint-order:normal;stroke-linejoin:miter"
       d="m 472.37861,15.161687 c -6.93537,0.399778 -10.96108,1.256276 -16.54722,3.046908 -39.79681,12.94949 -64.75343,48.180336 -62.97213,88.931395 1.16899,26.74286 13.31972,49.78629 34.45333,65.9042 8.96105,6.72985 25.13923,14.27406 34.12469,15.89858 5.98228,1.00456 8.90583,1.31848 10.40926,2.46074 0.32401,0.008 0.64638,0.0476 0.96986,0.0728 0.22172,-0.10118 0.49712,-0.16888 0.82626,-0.18417 l 2.09597,-0.0973 2.76932,-0.12858 2.23173,-0.10363 c 0.29914,-0.0126 0.59688,-0.0303 0.89586,-0.0435 0.29899,-0.0134 0.5993,-0.0226 0.89875,-0.0193 0.67398,0.0279 1.34795,0.0444 2.02246,0.0462 0.67953,-0.0114 1.35748,-0.0241 2.0368,6.7e-4 0.74711,0.0412 1.49522,0.0411 2.24304,0.0304 0.74622,-0.0483 1.48822,-0.13811 2.23252,-0.21019 0.4227,-0.0273 0.84247,-0.0813 1.26152,-0.1427 0.28536,-0.0419 0.53632,-0.0359 0.75287,0.004 l -0.01,-0.22012 6.50963,-1.19575 c 17.06927,-3.21708 36.27013,-14.31704 48.17092,-28.14057 11.55237,-13.297 16.58299,-22.84592 20.61033,-38.34552 3.36953,-13.55503 2.37352,-36.351951 -2.23845,-48.387923 -5.8629,-15.167768 -12.35761,-24.947445 -23.33348,-35.284266 -12.13247,-11.303986 -20.65047,-16.394894 -35.83524,-21.049283 -9.53538,-2.875005 -13.14719,-3.345251 -26.50856,-3.10769 -3.12413,0.04936 -5.75837,0.131162 -8.0702,0.264422 z m 4.84822,25.149843 c 5.4367,-0.252433 13.50114,0.13928 17.87031,0.957257 26.34983,5.156821 47.78549,25.344394 53.33031,50.225208 4.92818,22.102155 -6.40987,48.789235 -26.72401,62.748205 -7.81435,5.33948 -21.18459,11.06393 -26.24504,11.42652 l -3.45893,0.1606 -0.004,-0.0783 -0.10679,0.005 -2.2444,0.10422 c -1.00591,0.0693 -2.01304,0.0697 -3.02055,0.0655 -0.86906,-0.005 -1.73861,-0.003 -2.60759,0.0108 -0.41831,0.0458 -0.81936,0.19565 -1.23173,0.28524 -0.55722,0.11526 -1.12231,0.17158 -1.68797,0.22043 -0.53202,0.0431 -1.06587,0.0738 -1.59881,0.1023 -0.5902,0.0314 -1.17959,0.0601 -1.76995,0.0875 -0.61772,0.0361 -1.23611,-0.0201 -1.85357,-0.041 -0.48626,-0.0432 -0.96898,-0.12132 -1.45598,-0.15672 -0.4637,-0.0246 -0.92726,-0.0135 -1.3912,-0.003 -0.0827,0.002 -0.16549,0.004 -0.2482,0.007 -0.82293,0.0234 -1.32667,-0.30013 -1.51436,-0.70356 -0.0732,0.61276 -0.15722,1.06529 -0.27059,1.07056 -4.44827,0.20654 -21.31314,-6.02823 -28.94951,-10.77787 -10.43818,-6.53366 -17.97782,-14.73284 -23.93228,-26.32366 -3.92282,-7.6018 -4.23084,-8.99278 -4.83758,-22.87359 l -0.64012,-14.643827 4.71055,-11.193038 c 10.11854,-23.438763 33.32123,-39.320266 59.88142,-40.68109 z"
       inkscape:label="path1" />
    <rect
       style="fill:#ffaf08;fill-opacity:1;fill-rule:evenodd;stroke:#000000;stroke-width:5.25734;stroke-dasharray:none;stroke-opacity:0;paint-order:markers fill stroke"
       id="rect32"
       width="20.120056"
       height="115.26785"
       x="469.83093"
       y="96.467735"
       ry="6.5324287" />
  </g>
</svg>
